<svg width="100" height="100" viewBox="0 0 100 100" fill="none" xmlns="http://www.w3.org/2000/svg">
<rect width="100" height="99.6198" rx="16.5278" fill="#C7C7C7"/>
<path d="M75 18.4524H67.8572C66.91 18.4524 66.0016 18.8219 65.3318 19.4795C64.662 20.1372 64.2857 21.0292 64.2857 21.9592V81.5476H78.5714V21.9592C78.5714 21.0292 78.1952 20.1372 77.5254 19.4795C76.8556 18.8219 75.9472 18.4524 75 18.4524ZM53.5714 39.4935H46.4286C45.4814 39.4935 44.573 39.8629 43.9032 40.5206C43.2334 41.1783 42.8572 42.0703 42.8572 43.0003V81.5476H57.1429V43.0003C57.1429 42.0703 56.7666 41.1783 56.0968 40.5206C55.4271 39.8629 54.5186 39.4935 53.5714 39.4935ZM32.1429 60.5346H25C24.0528 60.5346 23.1444 60.904 22.4746 61.5617C21.8049 62.2194 21.4286 63.1114 21.4286 64.0414V81.5476H35.7143V64.0414C35.7143 63.1114 35.338 62.2194 34.6683 61.5617C33.9985 60.904 33.0901 60.5346 32.1429 60.5346Z" fill="white"/>
</svg>
