<svg width="100" height="100" viewBox="0 0 100 100" fill="none" xmlns="http://www.w3.org/2000/svg">
<rect y="0.114075" width="100" height="99.6198" rx="16.5278" fill="#C7C7C7"/>
<g clip-path="url(#clip0_43_3)">
<path d="M76.1905 27.1549V32.8947C76.1905 37.9529 63.9261 42.0784 48.8095 42.0784C33.6929 42.0784 21.4286 37.9529 21.4286 32.8947V27.1549C21.4286 22.0967 33.6929 17.9712 48.8095 17.9712C63.9261 17.9712 76.1905 22.0967 76.1905 27.1549ZM76.1905 40.0694V52.984C76.1905 58.0422 63.9261 62.1676 48.8095 62.1676C33.6929 62.1676 21.4286 58.0422 21.4286 52.984V40.0694C27.3112 44.2308 38.0782 46.168 48.8095 46.168C59.5409 46.168 70.3077 44.2308 76.1905 40.0694ZM76.1905 60.1587V73.0732C76.1905 78.1315 63.9261 82.2569 48.8095 82.2569C33.6929 82.2569 21.4286 78.1315 21.4286 73.0732V60.1587C27.3112 64.3201 38.0782 66.2573 48.8095 66.2573C59.5409 66.2573 70.3077 64.3201 76.1905 60.1587Z" fill="white"/>
</g>
<defs>
<clipPath id="clip0_43_3">
<rect width="54.7619" height="64.2857" fill="white" transform="translate(21.4286 17.9712)"/>
</clipPath>
</defs>
</svg>
