<svg width="122" height="147" viewBox="0 0 122 147" fill="none" xmlns="http://www.w3.org/2000/svg">
<path d="M43.5857 59.4952C38.152 57.7683 39.6988 56.3936 44.8845 54.4323C47.3685 53.4911 45.858 51.5062 45.9258 49.9183C45.9563 49.1915 48.7948 49.3364 48.5889 46.5329C48.4438 44.5586 44.124 41.7456 42.9469 40.5452C42.2671 39.8526 44.3322 37.9573 42.8779 36.2904C40.8923 34.0122 40.5787 30.0484 39.3771 27.8314C39.3771 27.8314 40.2932 26.4226 39.5912 25.6216C33.535 18.7199 10.9355 19.3536 5.16012 29.5112C-1.32313 40.914 -1.40972 56.674 12.0704 65.1648C18.0658 68.9402 10.3867 82.3101 10.3867 82.3101H34.161C34.161 80.0272 31.5097 71.838 36.1501 72.2055C40.1821 72.5247 45.1197 72.3492 44.6821 67.7645C44.5499 66.3816 44.3942 65.1365 45.3537 63.9903C46.3131 62.8454 47.702 60.8028 43.5857 59.4952Z" fill="#5F5F5F"/>
<path d="M52.6613 53.2239L88.6626 57.9558V48.494L52.6613 53.2239Z" fill="#5F5F5F"/>
<path d="M81.9091 84.3793L85.7704 76.1847L52.6613 58.2526L81.9091 84.3793Z" fill="#5F5F5F"/>
<path d="M85.7704 30.1791L81.9091 21.9825L52.6613 48.1131L85.7704 30.1791Z" fill="#5F5F5F"/>
<path d="M114.801 75.9249C114.801 76.7225 114.651 77.4702 114.352 78.1681C114.053 78.8659 113.642 79.4766 113.118 80C112.62 80.5234 112.022 80.9347 111.324 81.2338C110.626 81.5328 109.878 81.6824 109.081 81.6824C108.283 81.6824 107.535 81.5328 106.838 81.2338C106.14 80.9347 105.529 80.5234 105.006 80C104.482 79.4766 104.071 78.8659 103.772 78.1681C103.473 77.4702 103.323 76.7225 103.323 75.9249C103.323 75.1522 103.473 74.417 103.772 73.7191C104.071 73.0212 104.482 72.423 105.006 71.9245C105.529 71.426 106.14 71.0272 106.838 70.7282C107.535 70.4291 108.283 70.2795 109.081 70.2795C109.878 70.2795 110.626 70.4291 111.324 70.7282C112.022 71.0272 112.62 71.426 113.118 71.9245C113.642 72.423 114.053 73.0212 114.352 73.7191C114.651 74.417 114.801 75.1522 114.801 75.9249ZM115.661 31.9958C115.661 33.5909 115.561 35.4104 115.362 37.4542C115.187 39.4731 114.938 41.629 114.614 43.9221C114.315 46.2151 113.966 48.6078 113.567 51.1003C113.168 53.5678 112.769 56.0353 112.371 58.5028C112.146 59.9484 111.922 61.3566 111.698 62.7275C111.473 64.0983 111.262 65.4442 111.062 66.7652C110.987 67.2637 110.763 67.6749 110.389 67.9989C110.015 68.298 109.579 68.4476 109.081 68.4476C108.607 68.4476 108.183 68.298 107.81 67.9989C107.461 67.6749 107.249 67.2637 107.174 66.7652C106.975 65.4193 106.75 64.0235 106.501 62.5779C106.252 61.1323 106.015 59.6368 105.791 58.0915C105.392 55.6739 104.993 53.2562 104.594 50.8386C104.22 48.396 103.884 46.0531 103.585 43.8099C103.286 41.5418 103.037 39.4108 102.837 37.4168C102.663 35.398 102.575 33.5909 102.575 31.9958C102.575 31.0985 102.737 30.2635 103.061 29.4909C103.41 28.6933 103.884 27.9954 104.482 27.3972C105.08 26.7991 105.766 26.338 106.538 26.0139C107.336 25.665 108.183 25.4905 109.081 25.4905C109.978 25.4905 110.825 25.665 111.623 26.0139C112.421 26.338 113.118 26.7991 113.717 27.3972C114.315 27.9954 114.788 28.6933 115.137 29.4909C115.486 30.2635 115.661 31.0985 115.661 31.9958Z" fill="#E86C6C"/>
<path d="M14.386 125.165H11.3106V118.768H5.31366V125.165H2.2383V110.239H5.31366V116.288H11.3106V110.239H14.386V125.165ZM23.3148 125.165C23.1781 124.899 23.079 124.567 23.0175 124.171C22.2999 124.97 21.3671 125.37 20.2189 125.37C19.1323 125.37 18.2302 125.056 17.5126 124.427C16.8019 123.798 16.4465 123.006 16.4465 122.049C16.4465 120.873 16.8805 119.971 17.7484 119.342C18.6232 118.714 19.8841 118.396 21.5311 118.389H22.8945V117.753C22.8945 117.241 22.7612 116.831 22.4947 116.523C22.235 116.216 21.8215 116.062 21.2543 116.062C20.7554 116.062 20.3625 116.182 20.0754 116.421C19.7952 116.66 19.6551 116.988 19.6551 117.405H16.6925C16.6925 116.763 16.8907 116.168 17.2871 115.621C17.6835 115.074 18.2439 114.647 18.9683 114.34C19.6927 114.025 20.506 113.868 21.4081 113.868C22.7749 113.868 23.8581 114.213 24.6577 114.904C25.4641 115.587 25.8674 116.551 25.8674 117.794V122.602C25.8742 123.655 26.0211 124.451 26.3082 124.991V125.165H23.3148ZM20.8648 123.105C21.3021 123.105 21.7054 123.009 22.0744 122.818C22.4435 122.619 22.7168 122.356 22.8945 122.028V120.122H21.7874C20.3044 120.122 19.515 120.634 19.4193 121.659L19.4091 121.833C19.4091 122.202 19.5389 122.507 19.7986 122.746C20.0583 122.985 20.4137 123.105 20.8648 123.105ZM31.6901 111.346V114.073H33.5865V116.247H31.6901V121.782C31.6901 122.192 31.7686 122.486 31.9258 122.664C32.083 122.841 32.3837 122.93 32.8279 122.93C33.156 122.93 33.4464 122.906 33.6993 122.859V125.104C33.1184 125.281 32.5204 125.37 31.9053 125.37C29.8277 125.37 28.7685 124.321 28.7275 122.223V116.247H27.1078V114.073H28.7275V111.346H31.6901ZM40.3421 125.37C38.7156 125.37 37.3897 124.871 36.3646 123.873C35.3463 122.876 34.8372 121.546 34.8372 119.886V119.599C34.8372 118.485 35.0525 117.49 35.483 116.616C35.9136 115.734 36.5218 115.057 37.3077 114.586C38.1005 114.107 39.0026 113.868 40.014 113.868C41.5312 113.868 42.7238 114.347 43.5917 115.303C44.4665 116.26 44.9039 117.617 44.9039 119.373V120.583H37.8408C37.9365 121.307 38.2235 121.888 38.7019 122.326C39.1871 122.763 39.7988 122.982 40.5369 122.982C41.6782 122.982 42.57 122.568 43.2124 121.741L44.6681 123.371C44.2239 124 43.6225 124.492 42.8639 124.847C42.1053 125.196 41.2647 125.37 40.3421 125.37ZM40.0038 116.267C39.4161 116.267 38.9377 116.465 38.5686 116.862C38.2064 117.258 37.974 117.825 37.8715 118.563H41.9925V118.328C41.9789 117.671 41.8012 117.166 41.4595 116.81C41.1178 116.448 40.6325 116.267 40.0038 116.267ZM59.7579 121.249C59.7579 120.668 59.5529 120.224 59.1428 119.916C58.7328 119.602 57.9947 119.274 56.9286 118.932C55.8624 118.584 55.0184 118.242 54.3965 117.907C52.7016 116.991 51.8542 115.758 51.8542 114.207C51.8542 113.4 52.0797 112.683 52.5308 112.054C52.9887 111.418 53.6413 110.923 54.4888 110.567C55.343 110.212 56.2998 110.034 57.3591 110.034C58.4252 110.034 59.3752 110.229 60.2089 110.619C61.0427 111.001 61.6885 111.545 62.1464 112.249C62.6111 112.952 62.8435 113.752 62.8435 114.647H59.7681C59.7681 113.964 59.5529 113.434 59.1223 113.058C58.6918 112.676 58.0869 112.484 57.3078 112.484C56.5561 112.484 55.9718 112.645 55.5549 112.966C55.138 113.281 54.9296 113.697 54.9296 114.217C54.9296 114.702 55.1722 115.109 55.6574 115.437C56.1495 115.765 56.8705 116.072 57.8204 116.359C59.57 116.886 60.8445 117.538 61.6441 118.317C62.4437 119.096 62.8435 120.067 62.8435 121.229C62.8435 122.52 62.3549 123.535 61.3776 124.273C60.4003 125.004 59.0847 125.37 57.4309 125.37C56.2827 125.37 55.2371 125.162 54.294 124.745C53.3509 124.321 52.6299 123.744 52.131 123.012C51.6389 122.281 51.3929 121.434 51.3929 120.47H54.4785C54.4785 122.117 55.4626 122.941 57.4309 122.941C58.1621 122.941 58.7328 122.794 59.1428 122.5C59.5529 122.199 59.7579 121.782 59.7579 121.249ZM74.7247 119.722C74.7247 121.43 74.3351 122.8 73.556 123.832C72.7838 124.858 71.7381 125.37 70.4192 125.37C69.2984 125.37 68.3928 124.981 67.7026 124.201V129.43H64.74V114.073H67.4873L67.5898 115.16C68.3074 114.299 69.2437 113.868 70.3987 113.868C71.7655 113.868 72.8282 114.374 73.5868 115.385C74.3454 116.397 74.7247 117.791 74.7247 119.568V119.722ZM71.7621 119.506C71.7621 118.474 71.5775 117.678 71.2085 117.118C70.8463 116.557 70.3166 116.277 69.6196 116.277C68.6901 116.277 68.0511 116.633 67.7026 117.343V121.885C68.0648 122.616 68.7106 122.982 69.6401 122.982C71.0547 122.982 71.7621 121.823 71.7621 119.506ZM81.675 125.37C80.0485 125.37 78.7226 124.871 77.6975 123.873C76.6792 122.876 76.1701 121.546 76.1701 119.886V119.599C76.1701 118.485 76.3854 117.49 76.8159 116.616C77.2465 115.734 77.8547 115.057 78.6406 114.586C79.4334 114.107 80.3355 113.868 81.347 113.868C82.8641 113.868 84.0567 114.347 84.9246 115.303C85.7994 116.26 86.2368 117.617 86.2368 119.373V120.583H79.1737C79.2694 121.307 79.5564 121.888 80.0348 122.326C80.52 122.763 81.1317 122.982 81.8698 122.982C83.0111 122.982 83.9029 122.568 84.5453 121.741L86.001 123.371C85.5568 124 84.9554 124.492 84.1968 124.847C83.4382 125.196 82.5976 125.37 81.675 125.37ZM81.3367 116.267C80.749 116.267 80.2706 116.465 79.9015 116.862C79.5393 117.258 79.307 117.825 79.2045 118.563H83.3254V118.328C83.3118 117.671 83.1341 117.166 82.7924 116.81C82.4507 116.448 81.9655 116.267 81.3367 116.267ZM93.0333 125.37C91.4068 125.37 90.081 124.871 89.0559 123.873C88.0376 122.876 87.5284 121.546 87.5284 119.886V119.599C87.5284 118.485 87.7437 117.49 88.1743 116.616C88.6048 115.734 89.2131 115.057 89.999 114.586C90.7917 114.107 91.6939 113.868 92.7053 113.868C94.2225 113.868 95.415 114.347 96.283 115.303C97.1578 116.26 97.5951 117.617 97.5951 119.373V120.583H90.532C90.6277 121.307 90.9148 121.888 91.3931 122.326C91.8784 122.763 92.49 122.982 93.2281 122.982C94.3694 122.982 95.2613 122.568 95.9037 121.741L97.3594 123.371C96.9151 124 96.3137 124.492 95.5551 124.847C94.7966 125.196 93.956 125.37 93.0333 125.37ZM92.6951 116.267C92.1073 116.267 91.6289 116.465 91.2599 116.862C90.8977 117.258 90.6653 117.825 90.5628 118.563H94.6838V118.328C94.6701 117.671 94.4924 117.166 94.1507 116.81C93.809 116.448 93.3238 116.267 92.6951 116.267ZM103.9 122.982C104.446 122.982 104.891 122.831 105.232 122.531C105.574 122.23 105.752 121.83 105.765 121.331H108.543C108.537 122.083 108.332 122.773 107.928 123.402C107.525 124.024 106.972 124.509 106.268 124.858C105.571 125.199 104.798 125.37 103.951 125.37C102.365 125.37 101.115 124.868 100.199 123.863C99.2832 122.852 98.8253 121.458 98.8253 119.681V119.486C98.8253 117.777 99.2798 116.414 100.189 115.396C101.098 114.377 102.345 113.868 103.93 113.868C105.318 113.868 106.428 114.265 107.262 115.057C108.103 115.843 108.53 116.892 108.543 118.205H105.765C105.752 117.63 105.574 117.166 105.232 116.81C104.891 116.448 104.44 116.267 103.879 116.267C103.189 116.267 102.666 116.52 102.311 117.026C101.962 117.525 101.788 118.338 101.788 119.465V119.773C101.788 120.914 101.962 121.734 102.311 122.233C102.659 122.732 103.189 122.982 103.9 122.982ZM113.126 115.283C113.912 114.34 114.899 113.868 116.088 113.868C118.494 113.868 119.714 115.266 119.748 118.061V125.165H116.785V118.143C116.785 117.507 116.649 117.039 116.375 116.739C116.102 116.431 115.648 116.277 115.012 116.277C114.144 116.277 113.515 116.612 113.126 117.282V125.165H110.163V109.419H113.126V115.283Z" fill="#5F5F5F"/>
<path d="M2.06061 143.204V133.254H4.86944C5.7351 133.254 6.50053 133.445 7.16572 133.828C7.83091 134.211 8.34347 134.755 8.7034 135.461C9.06789 136.168 9.25241 136.978 9.25697 137.894V138.53C9.25697 139.468 9.07472 140.291 8.71024 140.997C8.3503 141.703 7.83319 142.245 7.15888 142.624C6.48914 143.002 5.70777 143.195 4.81477 143.204H2.06061ZM3.37277 134.334V142.131H4.75326C5.76472 142.131 6.55064 141.817 7.11104 141.188C7.676 140.56 7.95848 139.664 7.95848 138.503V137.922C7.95848 136.792 7.69195 135.915 7.15888 135.29C6.63038 134.662 5.87862 134.343 4.90362 134.334H3.37277ZM14.116 143.341C13.1137 143.341 12.2982 143.013 11.6694 142.357C11.0407 141.696 10.7263 140.815 10.7263 139.712V139.48C10.7263 138.746 10.8653 138.092 11.1432 137.518C11.4257 136.94 11.8175 136.489 12.3187 136.165C12.8244 135.837 13.3711 135.673 13.9589 135.673C14.9202 135.673 15.6674 135.99 16.2005 136.623C16.7335 137.256 17.0001 138.163 17.0001 139.343V139.869H11.9906C12.0088 140.598 12.2207 141.188 12.6262 141.639C13.0362 142.086 13.5556 142.309 14.1844 142.309C14.6309 142.309 15.009 142.218 15.3189 142.036C15.6287 141.854 15.8998 141.612 16.1321 141.311L16.9044 141.913C16.2847 142.865 15.3553 143.341 14.116 143.341ZM13.9589 136.712C13.4486 136.712 13.0203 136.899 12.674 137.272C12.3278 137.641 12.1136 138.161 12.0316 138.831H15.7357V138.735C15.6993 138.092 15.5262 137.596 15.2163 137.245C14.9065 136.89 14.4874 136.712 13.9589 136.712ZM20.1848 134.019V135.81H21.5653V136.787H20.1848V141.373C20.1848 141.669 20.2463 141.892 20.3693 142.043C20.4923 142.188 20.7019 142.261 20.998 142.261C21.1438 142.261 21.3443 142.234 21.5994 142.179V143.204C21.2668 143.296 20.9434 143.341 20.629 143.341C20.064 143.341 19.638 143.17 19.351 142.829C19.064 142.487 18.9204 142.002 18.9204 141.373V136.787H17.5741V135.81H18.9204V134.019H20.1848ZM26.1168 143.341C25.1145 143.341 24.2989 143.013 23.6702 142.357C23.0414 141.696 22.7271 140.815 22.7271 139.712V139.48C22.7271 138.746 22.866 138.092 23.144 137.518C23.4264 136.94 23.8183 136.489 24.3194 136.165C24.8252 135.837 25.3719 135.673 25.9596 135.673C26.921 135.673 27.6682 135.99 28.2012 136.623C28.7343 137.256 29.0008 138.163 29.0008 139.343V139.869H23.9914C24.0096 140.598 24.2215 141.188 24.627 141.639C25.037 142.086 25.5564 142.309 26.1851 142.309C26.6316 142.309 27.0098 142.218 27.3196 142.036C27.6294 141.854 27.9005 141.612 28.1329 141.311L28.9051 141.913C28.2855 142.865 27.3561 143.341 26.1168 143.341ZM25.9596 136.712C25.4493 136.712 25.0211 136.899 24.6748 137.272C24.3285 137.641 24.1144 138.161 24.0324 138.831H27.7365V138.735C27.7 138.092 27.5269 137.596 27.2171 137.245C26.9073 136.89 26.4881 136.712 25.9596 136.712ZM33.4362 142.309C33.8872 142.309 34.2813 142.172 34.6185 141.899C34.9556 141.626 35.1424 141.284 35.1789 140.874H36.3749C36.3521 141.298 36.2063 141.701 35.9375 142.084C35.6687 142.466 35.3087 142.772 34.8577 142.999C34.4112 143.227 33.9373 143.341 33.4362 143.341C32.4293 143.341 31.6274 143.006 31.0306 142.336C30.4383 141.662 30.1421 140.742 30.1421 139.575V139.364C30.1421 138.644 30.2742 138.004 30.5385 137.443C30.8028 136.883 31.1809 136.448 31.673 136.138C32.1696 135.828 32.755 135.673 33.4293 135.673C34.2586 135.673 34.9465 135.921 35.4933 136.418C36.0445 136.915 36.3384 137.559 36.3749 138.352H35.1789C35.1424 137.874 34.9602 137.482 34.6322 137.177C34.3087 136.867 33.9077 136.712 33.4293 136.712C32.7869 136.712 32.288 136.944 31.9327 137.409C31.5818 137.869 31.4064 138.537 31.4064 139.411V139.651C31.4064 140.503 31.5818 141.159 31.9327 141.619C32.2835 142.079 32.7847 142.309 33.4362 142.309ZM39.5117 134.019V135.81H40.8922V136.787H39.5117V141.373C39.5117 141.669 39.5732 141.892 39.6963 142.043C39.8193 142.188 40.0289 142.261 40.325 142.261C40.4708 142.261 40.6713 142.234 40.9264 142.179V143.204C40.5938 143.296 40.2703 143.341 39.956 143.341C39.391 143.341 38.965 143.17 38.678 142.829C38.3909 142.487 38.2474 142.002 38.2474 141.373V136.787H36.9011V135.81H38.2474V134.019H39.5117ZM43.7489 143.204H42.4846V135.81H43.7489V143.204ZM42.3821 133.848C42.3821 133.643 42.4436 133.47 42.5666 133.329C42.6942 133.188 42.881 133.117 43.127 133.117C43.373 133.117 43.5598 133.188 43.6874 133.329C43.815 133.47 43.8788 133.643 43.8788 133.848C43.8788 134.053 43.815 134.224 43.6874 134.361C43.5598 134.498 43.373 134.566 43.127 134.566C42.881 134.566 42.6942 134.498 42.5666 134.361C42.4436 134.224 42.3821 134.053 42.3821 133.848ZM45.4438 139.439C45.4438 138.714 45.585 138.063 45.8675 137.484C46.1545 136.906 46.5509 136.459 47.0566 136.145C47.5669 135.83 48.1478 135.673 48.7993 135.673C49.8062 135.673 50.6195 136.022 51.2391 136.719C51.8633 137.416 52.1754 138.343 52.1754 139.5V139.589C52.1754 140.309 52.0364 140.956 51.7585 141.53C51.4852 142.1 51.0911 142.544 50.5762 142.863C50.0659 143.182 49.4782 143.341 48.813 143.341C47.8107 143.341 46.9974 142.993 46.3732 142.295C45.7536 141.598 45.4438 140.676 45.4438 139.528V139.439ZM46.7149 139.589C46.7149 140.409 46.904 141.068 47.2822 141.564C47.6649 142.061 48.1752 142.309 48.813 142.309C49.4554 142.309 49.9657 142.059 50.3439 141.557C50.722 141.052 50.9111 140.345 50.9111 139.439C50.9111 138.628 50.7175 137.972 50.3302 137.471C49.9475 136.965 49.4372 136.712 48.7993 136.712C48.1752 136.712 47.6717 136.96 47.289 137.457C46.9063 137.954 46.7149 138.664 46.7149 139.589ZM54.9569 135.81L54.9979 136.739C55.5629 136.029 56.301 135.673 57.2122 135.673C58.7749 135.673 59.5631 136.555 59.5768 138.318V143.204H58.3125V138.311C58.3079 137.778 58.1849 137.384 57.9434 137.129C57.7065 136.874 57.3352 136.746 56.8295 136.746C56.4194 136.746 56.0595 136.855 55.7497 137.074C55.4399 137.293 55.1984 137.58 55.0252 137.935V143.204H53.7609V135.81H54.9569Z" fill="#5F5F5F"/>
</svg>
